<?xml version="1.0" encoding="utf-8"?>
<!-- Generator: Adobe Illustrator 21.0.0, SVG Export Plug-In . SVG Version: 6.00 Build 0)  -->
<svg version="1.1" id="Ebene_1" xmlns="http://www.w3.org/2000/svg" xmlns:xlink="http://www.w3.org/1999/xlink" x="0px" y="0px"
	 viewBox="0 0 100 100" style="enable-background:new 0 0 100 100;" xml:space="preserve">
<style type="text/css">
	.st0{fill:#FFFFFF;}
</style>
<g>
	<path class="st0" d="M45.9,43.6l-7.3,7.5c-1.6,2-2.7,4.4-3.1,7v0c0,0,0.4,0.4,1.9,0.8c0.7,0.2,1.4,0.3,2.2,0.3c0.1,0,0.1,0,0.2,0v0
		c0.2-1.9,0.9-3.6,1.9-5.1l7.2-7.5L45.9,43.6z"/>
	<path class="st0" d="M60.5,35.2c-3.7,0-7,1.3-9.6,3.6l3.2,3.1c1.8-1.4,4-2.2,6.4-2.2c5.7,0,10.3,4.6,10.3,10.3
		c0,3.6-1.8,6.8-4.6,8.6c0.1,0.6,0.1,1.1,0.1,1.7c0,1.2-0.1,2.3-0.4,3.4v0.1c5.5-2.2,9.4-7.5,9.4-13.7
		C75.2,41.8,68.6,35.2,60.5,35.2"/>
	<path class="st0" d="M64.6,42c-1.2-0.6-2.7-1-4.2-1c-0.1,0-0.1,0-0.2,0c-0.2,1.9-0.9,3.6-1.9,5l-7.2,7.5l3.1,3l7.3-7.5
		C63.1,46.9,64.2,44.6,64.6,42"/>
	<path class="st0" d="M42,35.6c-0.7,1.3-1.1,2.7-1.1,4.2c0,0,0,0.1,0,0.1c1.8,0.2,3.4,0.9,4.8,1.9c0,0,0,0,0.1,0l4.9,4.7l2.7,2.6
		l3-3.1l-7.6-7.3C46.9,37.1,44.7,36,42,35.6"/>
	<path class="st0" d="M49.4,61.4l-3.2-3.1c-1.8,1.4-4,2.2-6.4,2.2c-5.7,0-10.3-4.6-10.3-10.3c0-3.6,1.8-6.7,4.6-8.5
		c-0.1-0.6-0.1-1.2-0.1-1.8c0-1.1,0.1-2.2,0.3-3.3C28.8,38.7,25,44,25,50.2c0,8.2,6.6,14.8,14.8,14.8C43.4,64.9,46.8,63.6,49.4,61.4
		"/>
	<path class="st0" d="M41.8,46c-1.3-1.7-2.1-3.9-2.1-6.2c0-5.7,4.6-10.3,10.3-10.3c3.5,0,6.7,1.8,8.5,4.5c0.7-0.1,1.3-0.1,2-0.1
		c1.1,0,2.2,0.1,3.2,0.3C61.4,28.8,56.2,25,50,25c-8.2,0-14.8,6.6-14.8,14.8c0,3.6,1.3,6.9,3.4,9.4L41.8,46z"/>
	<path class="st0" d="M58.4,54.1c1.3,1.7,2.1,3.9,2.1,6.2c0,5.7-4.6,10.3-10.3,10.3c-3.5,0-6.6-1.7-8.4-4.4c-0.6,0.1-1.3,0.1-2,0.1
		c-1.1,0-2.2-0.1-3.2-0.3C38.8,71.2,44,75,50.2,75c8.2,0,14.8-6.6,14.8-14.8c0-3.6-1.3-6.9-3.4-9.4L58.4,54.1z"/>
	<path class="st0" d="M58.1,64.5c0.1-0.1,0.1-0.3,0.2-0.4c0,0,0-0.1,0.1-0.1c0-0.1,0.1-0.2,0.1-0.3c0-0.1,0-0.1,0.1-0.2
		c0-0.1,0.1-0.2,0.1-0.3c0,0,0-0.1,0-0.1c0.1-0.2,0.1-0.3,0.1-0.5v0c0-0.2,0.1-0.3,0.1-0.5c0-0.1,0-0.1,0-0.2c0-0.1,0-0.2,0.1-0.4
		c0-0.1,0-0.1,0-0.2c0-0.1,0-0.2,0-0.4c0-0.1,0-0.1,0-0.2c0-0.2,0-0.3,0-0.5v0c-1.8-0.2-3.4-0.9-4.8-1.9l-7.7-7.4l-3,3.1l7.7,7.4
		C53.3,63,55.5,64.1,58.1,64.5"/>
</g>
</svg>
